<?xml version="1.0" encoding="UTF-8" standalone="no"?>
<!DOCTYPE svg PUBLIC "-//W3C//DTD SVG 1.1//EN" "http://www.w3.org/Graphics/SVG/1.1/DTD/svg11.dtd">
<!-- Generated by Microsoft Visio, SVG Export embeddings-logo-2.svg Page-1 -->
<svg xmlns="http://www.w3.org/2000/svg" xmlns:xlink="http://www.w3.org/1999/xlink" xmlns:ev="http://www.w3.org/2001/xml-events"
		xmlns:v="http://schemas.microsoft.com/visio/2003/SVGExtensions/" width="1.50694in" height="2.10694in"
		viewBox="0 0 108.5 151.7" xml:space="preserve" color-interpolation-filters="sRGB" class="st3">
	<v:documentProperties v:langID="1033" v:viewMarkup="false"/>

	<style type="text/css">
	<![CDATA[
		.st1 {fill:#4672c4;stroke:#c7c8c8;stroke-width:0.25}
		.st2 {stroke:#4672c4;stroke-linecap:round;stroke-linejoin:round;stroke-width:3.5}
		.st3 {fill:none;fill-rule:evenodd;font-size:12px;overflow:visible;stroke-linecap:square;stroke-miterlimit:3}
	]]>
	</style>

	<g v:mID="0" v:index="1" v:groupContext="foregroundPage">
		<title>Page-1</title>
		<v:pageProperties v:drawingScale="1" v:pageScale="1" v:drawingUnits="19" v:shadowOffsetX="9" v:shadowOffsetY="-9"/>
		<g id="shape1-1" v:mID="1" v:groupContext="shape" transform="translate(65.05,-0.25)">
			<title>Circle.1</title>
			<v:userDefs>
				<v:ud v:nameU="visVersion" v:val="VT0(15):26"/>
			</v:userDefs>
			<path d="M0 140.9 A10.8 10.8 0 0 1 21.6 140.9 A10.8 10.8 0 1 1 0 140.9 Z" class="st1"/>
		</g>
		<g id="shape2-3" v:mID="2" v:groupContext="shape" transform="translate(0.25,-129.85)">
			<title>Circle.2</title>
			<v:userDefs>
				<v:ud v:nameU="visVersion" v:val="VT0(15):26"/>
			</v:userDefs>
			<path d="M0 140.9 A10.8 10.8 0 0 1 21.6 140.9 A10.8 10.8 0 1 1 0 140.9 Z" class="st1"/>
		</g>
		<g id="shape3-5" v:mID="3" v:groupContext="shape" transform="translate(43.4428,-86.65)">
			<title>Circle.3</title>
			<v:userDefs>
				<v:ud v:nameU="visVersion" v:val="VT0(15):26"/>
			</v:userDefs>
			<path d="M0 140.9 A10.8 10.8 0 0 1 21.6 140.9 A10.8 10.8 0 1 1 0 140.9 Z" class="st1"/>
		</g>
		<g id="shape4-7" v:mID="4" v:groupContext="shape" transform="translate(86.65,-86.65)">
			<title>Circle.4</title>
			<v:userDefs>
				<v:ud v:nameU="visVersion" v:val="VT0(15):26"/>
			</v:userDefs>
			<path d="M0 140.9 A10.8 10.8 0 0 1 21.6 140.9 A10.8 10.8 0 1 1 0 140.9 Z" class="st1"/>
		</g>
		<g id="shape5-9" v:mID="5" v:groupContext="shape" transform="translate(21.8428,-21.85)">
			<title>Circle.5</title>
			<v:userDefs>
				<v:ud v:nameU="visVersion" v:val="VT0(15):26"/>
			</v:userDefs>
			<path d="M0 140.9 A10.8 10.8 0 0 1 21.6 140.9 A10.8 10.8 0 1 1 0 140.9 Z" class="st1"/>
		</g>
		<g id="shape13-11" v:mID="13" v:groupContext="shape" transform="translate(204.712,161.524) rotate(135.003)">
			<title>Straight Line.13</title>
			<v:userDefs>
				<v:ud v:nameU="visVersion" v:prompt="" v:val="VT0(17):26"/>
			</v:userDefs>
			<path d="M0 151.7 L91.65 151.7" class="st2"/>
		</g>
		<g id="shape14-14" v:mID="14" v:groupContext="shape" transform="translate(159.806,-18.6913) rotate(78.6937)">
			<title>Straight Line.14</title>
			<v:userDefs>
				<v:ud v:nameU="visVersion" v:prompt="" v:val="VT0(17):26"/>
			</v:userDefs>
			<path d="M0 151.7 L110.14 151.7" class="st2"/>
		</g>
		<g id="shape15-17" v:mID="15" v:groupContext="shape" transform="translate(118.327,-96.2092) rotate(45.0048)">
			<title>Straight Line.15</title>
			<v:userDefs>
				<v:ud v:nameU="visVersion" v:prompt="" v:val="VT0(17):26"/>
			</v:userDefs>
			<path d="M0 151.7 L61.09 151.7" class="st2"/>
		</g>
		<g id="shape16-20" v:mID="16" v:groupContext="shape" transform="translate(54.2428,-97.45)">
			<title>Straight Line.16</title>
			<v:userDefs>
				<v:ud v:nameU="visVersion" v:prompt="" v:val="VT0(17):26"/>
			</v:userDefs>
			<path d="M0 151.7 L43.21 151.7" class="st2"/>
		</g>
		<g id="shape18-23" v:mID="18" v:groupContext="shape" transform="translate(244.621,91.0427) rotate(104.036)">
			<title>Straight Line.18</title>
			<v:userDefs>
				<v:ud v:nameU="visVersion" v:prompt="" v:val="VT0(17):26"/>
			</v:userDefs>
			<path d="M0 151.7 L89.06 151.7" class="st2"/>
		</g>
		<g id="shape19-26" v:mID="19" v:groupContext="shape" transform="translate(198.158,102.222) rotate(108.435)">
			<title>Straight Line.19</title>
			<v:userDefs>
				<v:ud v:nameU="visVersion" v:prompt="" v:val="VT0(17):26"/>
			</v:userDefs>
			<path d="M0 151.7 L68.31 151.7" class="st2"/>
		</g>
		<g id="shape20-29" v:mID="20" v:groupContext="shape" transform="translate(100.476,-16.6391) rotate(26.5612)">
			<title>Straight Line.20</title>
			<v:userDefs>
				<v:ud v:nameU="visVersion" v:prompt="" v:val="VT0(17):26"/>
			</v:userDefs>
			<path d="M0 151.7 L48.31 151.7" class="st2"/>
		</g>
		<g id="shape21-32" v:mID="21" v:groupContext="shape" transform="translate(78.8923,-124.635) rotate(26.5651)">
			<title>Straight Line.21</title>
			<v:userDefs>
				<v:ud v:nameU="visVersion" v:prompt="" v:val="VT0(17):26"/>
			</v:userDefs>
			<path d="M0 151.7 L96.6 151.7" class="st2"/>
		</g>
	</g>
</svg>
